<svg width="314" height="65" viewBox="0 0 314 65" fill="none" xmlns="http://www.w3.org/2000/svg">
<path fill-rule="evenodd" clip-rule="evenodd" d="M0 5.31055C0 2.54912 2.23858 0.310547 5 0.310547H295C297.761 0.310547 300 2.54912 300 5.31055V57.1613C300 59.9228 297.761 62.1613 295 62.1613H5C2.23858 62.1613 0 59.9228 0 57.1613V5.31055Z" fill="#F7F9FC"/>
<path d="M292.5 61.9995C297.678 61.9994 313.428 62.065 314 61.9992C302.5 58.4988 300.066 48.5713 300 47.9998C299.934 47.4282 286.577 61.9997 292.5 61.9995Z" fill="#F7F9FC"/>
<path d="M24.0322 17.2129H20.833V26.0859H19.5273V17.2129H16.335V16.1328H24.0322V17.2129ZM24.292 22.3193C24.292 21.5947 24.4333 20.943 24.7158 20.3643C25.0029 19.7855 25.3994 19.3389 25.9053 19.0244C26.4157 18.71 26.9967 18.5527 27.6484 18.5527C28.6556 18.5527 29.4691 18.9014 30.0889 19.5986C30.7132 20.2959 31.0254 21.2233 31.0254 22.3809V22.4697C31.0254 23.1898 30.8864 23.8369 30.6084 24.4111C30.335 24.9808 29.9408 25.4251 29.4258 25.7441C28.9154 26.0632 28.3275 26.2227 27.6621 26.2227C26.6595 26.2227 25.846 25.874 25.2217 25.1768C24.6019 24.4795 24.292 23.5566 24.292 22.4082V22.3193ZM25.5635 22.4697C25.5635 23.29 25.7526 23.9486 26.1309 24.4453C26.5137 24.9421 27.0241 25.1904 27.6621 25.1904C28.3047 25.1904 28.8151 24.9398 29.1934 24.4385C29.5716 23.9326 29.7607 23.2262 29.7607 22.3193C29.7607 21.5081 29.5671 20.8519 29.1797 20.3506C28.7969 19.8447 28.2865 19.5918 27.6484 19.5918C27.0241 19.5918 26.5205 19.8402 26.1377 20.3369C25.7549 20.8337 25.5635 21.5446 25.5635 22.4697ZM37.7998 16.8984V18.6895H39.1807V19.667H37.7998V24.2539C37.7998 24.5501 37.8613 24.7734 37.9844 24.9238C38.1074 25.0697 38.3171 25.1426 38.6133 25.1426C38.7591 25.1426 38.9596 25.1152 39.2148 25.0605V26.0859C38.8822 26.1771 38.5586 26.2227 38.2441 26.2227C37.679 26.2227 37.2529 26.0518 36.9658 25.71C36.6787 25.3682 36.5352 24.8828 36.5352 24.2539V19.667H35.1885V18.6895H36.5352V16.8984H37.7998ZM45.2305 26.0859C45.1576 25.9401 45.0983 25.6803 45.0527 25.3066C44.4648 25.9173 43.763 26.2227 42.9473 26.2227C42.2181 26.2227 41.6188 26.0176 41.1494 25.6074C40.6846 25.1927 40.4521 24.6686 40.4521 24.0352C40.4521 23.265 40.7438 22.668 41.3271 22.2441C41.915 21.8158 42.7399 21.6016 43.8018 21.6016H45.0322V21.0205C45.0322 20.5785 44.9001 20.2275 44.6357 19.9678C44.3714 19.7035 43.9818 19.5713 43.4668 19.5713C43.0156 19.5713 42.6374 19.6852 42.332 19.9131C42.0267 20.141 41.874 20.4167 41.874 20.7402H40.6025C40.6025 20.3711 40.7324 20.0156 40.9922 19.6738C41.2565 19.3275 41.612 19.054 42.0586 18.8535C42.5098 18.653 43.0042 18.5527 43.542 18.5527C44.3942 18.5527 45.0618 18.7669 45.5449 19.1953C46.028 19.6191 46.2786 20.2048 46.2969 20.9521V24.3564C46.2969 25.0355 46.3835 25.5755 46.5566 25.9766V26.0859H45.2305ZM43.1318 25.1221C43.5283 25.1221 43.9043 25.0195 44.2598 24.8145C44.6152 24.6094 44.8727 24.3428 45.0322 24.0146V22.4971H44.041C42.4915 22.4971 41.7168 22.9505 41.7168 23.8574C41.7168 24.2539 41.849 24.5638 42.1133 24.7871C42.3776 25.0104 42.7171 25.1221 43.1318 25.1221ZM50.3438 22.6611L49.5508 23.4883V26.0859H48.2861V15.5859H49.5508V21.9365L50.2275 21.123L52.5312 18.6895H54.0693L51.1914 21.7793L54.4043 26.0859H52.9209L50.3438 22.6611ZM58.3076 26.2227C57.305 26.2227 56.4893 25.8945 55.8604 25.2383C55.2314 24.5775 54.917 23.6956 54.917 22.5928V22.3604C54.917 21.6266 55.056 20.9727 55.334 20.3984C55.6165 19.8197 56.0085 19.3685 56.5098 19.0449C57.0156 18.7168 57.5625 18.5527 58.1504 18.5527C59.112 18.5527 59.8594 18.8695 60.3926 19.5029C60.9258 20.1364 61.1924 21.0433 61.1924 22.2236V22.75H56.1816C56.1999 23.4792 56.4118 24.0693 56.8174 24.5205C57.2275 24.9671 57.7471 25.1904 58.376 25.1904C58.8226 25.1904 59.2008 25.0993 59.5107 24.917C59.8206 24.7347 60.0918 24.4932 60.3242 24.1924L61.0967 24.7939C60.4769 25.7464 59.5472 26.2227 58.3076 26.2227ZM58.1504 19.5918C57.64 19.5918 57.2116 19.7786 56.8652 20.1523C56.5189 20.5215 56.3047 21.041 56.2227 21.7109H59.9277V21.6152C59.8913 20.9727 59.7181 20.4759 59.4082 20.125C59.0983 19.7695 58.679 19.5918 58.1504 19.5918ZM70.7012 26.0859C70.6283 25.9401 70.569 25.6803 70.5234 25.3066C69.9355 25.9173 69.2337 26.2227 68.418 26.2227C67.6888 26.2227 67.0895 26.0176 66.6201 25.6074C66.1553 25.1927 65.9229 24.6686 65.9229 24.0352C65.9229 23.265 66.2145 22.668 66.7979 22.2441C67.3857 21.8158 68.2106 21.6016 69.2725 21.6016H70.5029V21.0205C70.5029 20.5785 70.3708 20.2275 70.1064 19.9678C69.8421 19.7035 69.4525 19.5713 68.9375 19.5713C68.4863 19.5713 68.1081 19.6852 67.8027 19.9131C67.4974 20.141 67.3447 20.4167 67.3447 20.7402H66.0732C66.0732 20.3711 66.2031 20.0156 66.4629 19.6738C66.7272 19.3275 67.0827 19.054 67.5293 18.8535C67.9805 18.653 68.4749 18.5527 69.0127 18.5527C69.8649 18.5527 70.5326 18.7669 71.0156 19.1953C71.4987 19.6191 71.7493 20.2048 71.7676 20.9521V24.3564C71.7676 25.0355 71.8542 25.5755 72.0273 25.9766V26.0859H70.7012ZM68.6025 25.1221C68.999 25.1221 69.375 25.0195 69.7305 24.8145C70.0859 24.6094 70.3434 24.3428 70.5029 24.0146V22.4971H69.5117C67.9622 22.4971 67.1875 22.9505 67.1875 23.8574C67.1875 24.2539 67.3197 24.5638 67.584 24.7871C67.8483 25.0104 68.1878 25.1221 68.6025 25.1221ZM78.9385 16.8984V18.6895H80.3193V19.667H78.9385V24.2539C78.9385 24.5501 79 24.7734 79.123 24.9238C79.2461 25.0697 79.4557 25.1426 79.752 25.1426C79.8978 25.1426 80.0983 25.1152 80.3535 25.0605V26.0859C80.0208 26.1771 79.6973 26.2227 79.3828 26.2227C78.8177 26.2227 78.3916 26.0518 78.1045 25.71C77.8174 25.3682 77.6738 24.8828 77.6738 24.2539V19.667H76.3271V18.6895H77.6738V16.8984H78.9385ZM85.3779 19.8242C85.1865 19.7923 84.9792 19.7764 84.7559 19.7764C83.9264 19.7764 83.3636 20.1296 83.0674 20.8359V26.0859H81.8027V18.6895H83.0332L83.0537 19.5439C83.4684 18.8831 84.0563 18.5527 84.8174 18.5527C85.0635 18.5527 85.2503 18.5846 85.3779 18.6484V19.8242ZM87.9209 26.0859H86.6562V18.6895H87.9209V26.0859ZM86.5537 16.7275C86.5537 16.5225 86.6152 16.3493 86.7383 16.208C86.8659 16.0667 87.0527 15.9961 87.2988 15.9961C87.5449 15.9961 87.7318 16.0667 87.8594 16.208C87.987 16.3493 88.0508 16.5225 88.0508 16.7275C88.0508 16.9326 87.987 17.1035 87.8594 17.2402C87.7318 17.377 87.5449 17.4453 87.2988 17.4453C87.0527 17.4453 86.8659 17.377 86.7383 17.2402C86.6152 17.1035 86.5537 16.9326 86.5537 16.7275ZM92.3916 24.3701L94.2236 18.6895H95.5156L92.8633 26.0859H91.8994L89.2197 18.6895H90.5117L92.3916 24.3701ZM98.1064 26.0859H96.8418V18.6895H98.1064V26.0859ZM96.7393 16.7275C96.7393 16.5225 96.8008 16.3493 96.9238 16.208C97.0514 16.0667 97.2383 15.9961 97.4844 15.9961C97.7305 15.9961 97.9173 16.0667 98.0449 16.208C98.1725 16.3493 98.2363 16.5225 98.2363 16.7275C98.2363 16.9326 98.1725 17.1035 98.0449 17.2402C97.9173 17.377 97.7305 17.4453 97.4844 17.4453C97.2383 17.4453 97.0514 17.377 96.9238 17.2402C96.8008 17.1035 96.7393 16.9326 96.7393 16.7275ZM104.703 26.0859C104.63 25.9401 104.571 25.6803 104.525 25.3066C103.938 25.9173 103.236 26.2227 102.42 26.2227C101.691 26.2227 101.091 26.0176 100.622 25.6074C100.157 25.1927 99.9248 24.6686 99.9248 24.0352C99.9248 23.265 100.216 22.668 100.8 22.2441C101.388 21.8158 102.213 21.6016 103.274 21.6016H104.505V21.0205C104.505 20.5785 104.373 20.2275 104.108 19.9678C103.844 19.7035 103.454 19.5713 102.939 19.5713C102.488 19.5713 102.11 19.6852 101.805 19.9131C101.499 20.141 101.347 20.4167 101.347 20.7402H100.075C100.075 20.3711 100.205 20.0156 100.465 19.6738C100.729 19.3275 101.085 19.054 101.531 18.8535C101.982 18.653 102.477 18.5527 103.015 18.5527C103.867 18.5527 104.535 18.7669 105.018 19.1953C105.501 19.6191 105.751 20.2048 105.77 20.9521V24.3564C105.77 25.0355 105.856 25.5755 106.029 25.9766V26.0859H104.703ZM102.604 25.1221C103.001 25.1221 103.377 25.0195 103.732 24.8145C104.088 24.6094 104.345 24.3428 104.505 24.0146V22.4971H103.514C101.964 22.4971 101.189 22.9505 101.189 23.8574C101.189 24.2539 101.322 24.5638 101.586 24.7871C101.85 25.0104 102.19 25.1221 102.604 25.1221ZM109.126 26.0859H107.861V15.5859H109.126V26.0859ZM117.698 26.2227C116.696 26.2227 115.88 25.8945 115.251 25.2383C114.622 24.5775 114.308 23.6956 114.308 22.5928V22.3604C114.308 21.6266 114.447 20.9727 114.725 20.3984C115.007 19.8197 115.399 19.3685 115.9 19.0449C116.406 18.7168 116.953 18.5527 117.541 18.5527C118.503 18.5527 119.25 18.8695 119.783 19.5029C120.316 20.1364 120.583 21.0433 120.583 22.2236V22.75H115.572C115.59 23.4792 115.802 24.0693 116.208 24.5205C116.618 24.9671 117.138 25.1904 117.767 25.1904C118.213 25.1904 118.591 25.0993 118.901 24.917C119.211 24.7347 119.482 24.4932 119.715 24.1924L120.487 24.7939C119.868 25.7464 118.938 26.2227 117.698 26.2227ZM117.541 19.5918C117.031 19.5918 116.602 19.7786 116.256 20.1523C115.91 20.5215 115.695 21.041 115.613 21.7109H119.318V21.6152C119.282 20.9727 119.109 20.4759 118.799 20.125C118.489 19.7695 118.07 19.5918 117.541 19.5918ZM124.534 21.3896L126.175 18.6895H127.651L125.231 22.3467L127.727 26.0859H126.264L124.555 23.3174L122.846 26.0859H121.376L123.871 22.3467L121.451 18.6895H122.914L124.534 21.3896ZM133.564 26.0859C133.492 25.9401 133.432 25.6803 133.387 25.3066C132.799 25.9173 132.097 26.2227 131.281 26.2227C130.552 26.2227 129.953 26.0176 129.483 25.6074C129.019 25.1927 128.786 24.6686 128.786 24.0352C128.786 23.265 129.078 22.668 129.661 22.2441C130.249 21.8158 131.074 21.6016 132.136 21.6016H133.366V21.0205C133.366 20.5785 133.234 20.2275 132.97 19.9678C132.705 19.7035 132.316 19.5713 131.801 19.5713C131.35 19.5713 130.971 19.6852 130.666 19.9131C130.361 20.141 130.208 20.4167 130.208 20.7402H128.937C128.937 20.3711 129.066 20.0156 129.326 19.6738C129.59 19.3275 129.946 19.054 130.393 18.8535C130.844 18.653 131.338 18.5527 131.876 18.5527C132.728 18.5527 133.396 18.7669 133.879 19.1953C134.362 19.6191 134.613 20.2048 134.631 20.9521V24.3564C134.631 25.0355 134.717 25.5755 134.891 25.9766V26.0859H133.564ZM131.466 25.1221C131.862 25.1221 132.238 25.0195 132.594 24.8145C132.949 24.6094 133.207 24.3428 133.366 24.0146V22.4971H132.375C130.826 22.4971 130.051 22.9505 130.051 23.8574C130.051 24.2539 130.183 24.5638 130.447 24.7871C130.712 25.0104 131.051 25.1221 131.466 25.1221ZM137.803 18.6895L137.837 19.5098C138.379 18.8717 139.111 18.5527 140.031 18.5527C141.066 18.5527 141.77 18.9492 142.144 19.7422C142.39 19.3867 142.709 19.0996 143.101 18.8809C143.497 18.6621 143.964 18.5527 144.502 18.5527C146.124 18.5527 146.949 19.4118 146.977 21.1299V26.0859H145.712V21.2051C145.712 20.6764 145.591 20.2822 145.35 20.0225C145.108 19.7581 144.702 19.626 144.133 19.626C143.663 19.626 143.274 19.7673 142.964 20.0498C142.654 20.3278 142.474 20.7038 142.424 21.1777V26.0859H141.152V21.2393C141.152 20.1637 140.626 19.626 139.573 19.626C138.744 19.626 138.176 19.9792 137.871 20.6855V26.0859H136.606V18.6895H137.803ZM155.139 22.4697C155.139 23.5954 154.881 24.5023 154.366 25.1904C153.851 25.8786 153.154 26.2227 152.274 26.2227C151.377 26.2227 150.67 25.9378 150.155 25.3682V28.9297H148.891V18.6895H150.046L150.107 19.5098C150.622 18.8717 151.338 18.5527 152.254 18.5527C153.143 18.5527 153.844 18.8877 154.359 19.5576C154.879 20.2275 155.139 21.1595 155.139 22.3535V22.4697ZM153.874 22.3262C153.874 21.4922 153.696 20.8337 153.341 20.3506C152.985 19.8675 152.498 19.626 151.878 19.626C151.112 19.626 150.538 19.9655 150.155 20.6445V24.1787C150.534 24.8532 151.112 25.1904 151.892 25.1904C152.498 25.1904 152.979 24.9512 153.334 24.4727C153.694 23.9896 153.874 23.2741 153.874 22.3262ZM158.126 26.0859H156.861V15.5859H158.126V26.0859ZM163.226 26.2227C162.223 26.2227 161.407 25.8945 160.778 25.2383C160.149 24.5775 159.835 23.6956 159.835 22.5928V22.3604C159.835 21.6266 159.974 20.9727 160.252 20.3984C160.535 19.8197 160.926 19.3685 161.428 19.0449C161.934 18.7168 162.48 18.5527 163.068 18.5527C164.03 18.5527 164.777 18.8695 165.311 19.5029C165.844 20.1364 166.11 21.0433 166.11 22.2236V22.75H161.1C161.118 23.4792 161.33 24.0693 161.735 24.5205C162.146 24.9671 162.665 25.1904 163.294 25.1904C163.741 25.1904 164.119 25.0993 164.429 24.917C164.739 24.7347 165.01 24.4932 165.242 24.1924L166.015 24.7939C165.395 25.7464 164.465 26.2227 163.226 26.2227ZM163.068 19.5918C162.558 19.5918 162.13 19.7786 161.783 20.1523C161.437 20.5215 161.223 21.041 161.141 21.7109H164.846V21.6152C164.809 20.9727 164.636 20.4759 164.326 20.125C164.016 19.7695 163.597 19.5918 163.068 19.5918ZM167.539 28.0684L166.821 27.5762C167.25 26.9792 167.473 26.3639 167.491 25.7305V24.5889H168.729V25.5801C168.729 26.0404 168.615 26.5007 168.387 26.9609C168.163 27.4212 167.881 27.7904 167.539 28.0684ZM180.35 24.3428L181.771 18.6895H183.036L180.883 26.0859H179.857L178.06 20.4805L176.31 26.0859H175.284L173.138 18.6895H174.396L175.852 24.2266L177.574 18.6895H178.593L180.35 24.3428ZM185.593 19.585C186.153 18.8968 186.882 18.5527 187.78 18.5527C189.343 18.5527 190.132 19.4346 190.146 21.1982V26.0859H188.881V21.1914C188.876 20.6582 188.753 20.264 188.512 20.0088C188.275 19.7536 187.903 19.626 187.397 19.626C186.987 19.626 186.627 19.7354 186.317 19.9541C186.007 20.1729 185.766 20.46 185.593 20.8154V26.0859H184.328V15.5859H185.593V19.585ZM193.413 26.0859H192.148V18.6895H193.413V26.0859ZM192.046 16.7275C192.046 16.5225 192.107 16.3493 192.23 16.208C192.358 16.0667 192.545 15.9961 192.791 15.9961C193.037 15.9961 193.224 16.0667 193.352 16.208C193.479 16.3493 193.543 16.5225 193.543 16.7275C193.543 16.9326 193.479 17.1035 193.352 17.2402C193.224 17.377 193.037 17.4453 192.791 17.4453C192.545 17.4453 192.358 17.377 192.23 17.2402C192.107 17.1035 192.046 16.9326 192.046 16.7275ZM198.41 25.1904C198.861 25.1904 199.256 25.0537 199.593 24.7803C199.93 24.5068 200.117 24.165 200.153 23.7549H201.35C201.327 24.1787 201.181 24.582 200.912 24.9648C200.643 25.3477 200.283 25.653 199.832 25.8809C199.385 26.1087 198.911 26.2227 198.41 26.2227C197.403 26.2227 196.601 25.8877 196.004 25.2178C195.411 24.5433 195.115 23.6227 195.115 22.4561V22.2441C195.115 21.5241 195.247 20.8838 195.512 20.3232C195.776 19.7627 196.154 19.3275 196.646 19.0176C197.143 18.7077 197.729 18.5527 198.403 18.5527C199.233 18.5527 199.921 18.8011 200.468 19.2979C201.019 19.7946 201.313 20.4395 201.35 21.2324H200.153C200.117 20.7539 199.935 20.362 199.606 20.0566C199.283 19.7467 198.882 19.5918 198.403 19.5918C197.761 19.5918 197.262 19.8242 196.906 20.2891C196.555 20.7493 196.38 21.417 196.38 22.292V22.5312C196.38 23.3835 196.555 24.0397 196.906 24.5C197.257 24.9603 197.758 25.1904 198.41 25.1904ZM204.036 19.585C204.597 18.8968 205.326 18.5527 206.224 18.5527C207.787 18.5527 208.575 19.4346 208.589 21.1982V26.0859H207.324V21.1914C207.32 20.6582 207.197 20.264 206.955 20.0088C206.718 19.7536 206.347 19.626 205.841 19.626C205.431 19.626 205.071 19.7354 204.761 19.9541C204.451 20.1729 204.209 20.46 204.036 20.8154V26.0859H202.771V15.5859H204.036V19.585ZM213.62 22.3193C213.62 21.5947 213.761 20.943 214.044 20.3643C214.331 19.7855 214.728 19.3389 215.233 19.0244C215.744 18.71 216.325 18.5527 216.977 18.5527C217.984 18.5527 218.797 18.9014 219.417 19.5986C220.041 20.2959 220.354 21.2233 220.354 22.3809V22.4697C220.354 23.1898 220.215 23.8369 219.937 24.4111C219.663 24.9808 219.269 25.4251 218.754 25.7441C218.243 26.0632 217.656 26.2227 216.99 26.2227C215.988 26.2227 215.174 25.874 214.55 25.1768C213.93 24.4795 213.62 23.5566 213.62 22.4082V22.3193ZM214.892 22.4697C214.892 23.29 215.081 23.9486 215.459 24.4453C215.842 24.9421 216.352 25.1904 216.99 25.1904C217.633 25.1904 218.143 24.9398 218.521 24.4385C218.9 23.9326 219.089 23.2262 219.089 22.3193C219.089 21.5081 218.895 20.8519 218.508 20.3506C218.125 19.8447 217.615 19.5918 216.977 19.5918C216.352 19.5918 215.849 19.8402 215.466 20.3369C215.083 20.8337 214.892 21.5446 214.892 22.4697ZM222.562 26.0859V19.667H221.393V18.6895H222.562V17.9307C222.562 17.1377 222.773 16.5247 223.197 16.0918C223.621 15.6589 224.22 15.4424 224.995 15.4424C225.287 15.4424 225.576 15.4811 225.863 15.5586L225.795 16.584C225.581 16.543 225.353 16.5225 225.111 16.5225C224.701 16.5225 224.384 16.6432 224.161 16.8848C223.938 17.1217 223.826 17.4635 223.826 17.9102V18.6895H225.405V19.667H223.826V26.0859H222.562ZM234.846 25.3545C234.354 25.9333 233.631 26.2227 232.679 26.2227C231.89 26.2227 231.289 25.9948 230.874 25.5391C230.464 25.0788 230.257 24.3997 230.252 23.502V18.6895H231.517V23.4678C231.517 24.5889 231.972 25.1494 232.884 25.1494C233.85 25.1494 234.493 24.7894 234.812 24.0693V18.6895H236.076V26.0859H234.873L234.846 25.3545ZM242.311 24.124C242.311 23.7822 242.181 23.5179 241.921 23.3311C241.666 23.1396 241.217 22.9756 240.574 22.8389C239.936 22.7021 239.428 22.5381 239.05 22.3467C238.676 22.1553 238.398 21.9274 238.216 21.6631C238.038 21.3988 237.949 21.0843 237.949 20.7197C237.949 20.1136 238.204 19.6009 238.715 19.1816C239.23 18.7624 239.886 18.5527 240.684 18.5527C241.522 18.5527 242.201 18.7692 242.721 19.2021C243.245 19.6351 243.507 20.1888 243.507 20.8633H242.235C242.235 20.5169 242.087 20.2184 241.791 19.9678C241.499 19.7171 241.13 19.5918 240.684 19.5918C240.223 19.5918 239.863 19.6921 239.604 19.8926C239.344 20.0931 239.214 20.3551 239.214 20.6787C239.214 20.984 239.335 21.2142 239.576 21.3691C239.818 21.5241 240.253 21.6722 240.882 21.8135C241.515 21.9548 242.028 22.1234 242.42 22.3193C242.812 22.5153 243.101 22.7523 243.288 23.0303C243.479 23.3037 243.575 23.6387 243.575 24.0352C243.575 24.696 243.311 25.2269 242.782 25.6279C242.254 26.0244 241.568 26.2227 240.725 26.2227C240.132 26.2227 239.608 26.1178 239.152 25.9082C238.697 25.6986 238.339 25.4069 238.079 25.0332C237.824 24.6549 237.696 24.2471 237.696 23.8096H238.961C238.984 24.2334 239.152 24.5706 239.467 24.8213C239.786 25.0674 240.205 25.1904 240.725 25.1904C241.203 25.1904 241.586 25.0947 241.873 24.9033C242.165 24.7074 242.311 24.4476 242.311 24.124ZM20.0264 46.2227C19.0238 46.2227 18.208 45.8945 17.5791 45.2383C16.9502 44.5775 16.6357 43.6956 16.6357 42.5928V42.3604C16.6357 41.6266 16.7747 40.9727 17.0527 40.3984C17.3353 39.8197 17.7272 39.3685 18.2285 39.0449C18.7344 38.7168 19.2812 38.5527 19.8691 38.5527C20.8307 38.5527 21.5781 38.8695 22.1113 39.5029C22.6445 40.1364 22.9111 41.0433 22.9111 42.2236V42.75H17.9004C17.9186 43.4792 18.1305 44.0693 18.5361 44.5205C18.9463 44.9671 19.4658 45.1904 20.0947 45.1904C20.5413 45.1904 20.9196 45.0993 21.2295 44.917C21.5394 44.7347 21.8105 44.4932 22.043 44.1924L22.8154 44.7939C22.1956 45.7464 21.266 46.2227 20.0264 46.2227ZM19.8691 39.5918C19.3587 39.5918 18.9303 39.7786 18.584 40.1523C18.2376 40.5215 18.0234 41.041 17.9414 41.7109H21.6465V41.6152C21.61 40.9727 21.4368 40.4759 21.127 40.125C20.8171 39.7695 20.3978 39.5918 19.8691 39.5918ZM26.7256 44.3701L28.5576 38.6895H29.8496L27.1973 46.0859H26.2334L23.5537 38.6895H24.8457L26.7256 44.3701ZM34.04 46.2227C33.0374 46.2227 32.2217 45.8945 31.5928 45.2383C30.9639 44.5775 30.6494 43.6956 30.6494 42.5928V42.3604C30.6494 41.6266 30.7884 40.9727 31.0664 40.3984C31.349 39.8197 31.7409 39.3685 32.2422 39.0449C32.748 38.7168 33.2949 38.5527 33.8828 38.5527C34.8444 38.5527 35.5918 38.8695 36.125 39.5029C36.6582 40.1364 36.9248 41.0433 36.9248 42.2236V42.75H31.9141C31.9323 43.4792 32.1442 44.0693 32.5498 44.5205C32.96 44.9671 33.4795 45.1904 34.1084 45.1904C34.555 45.1904 34.9333 45.0993 35.2432 44.917C35.5531 44.7347 35.8242 44.4932 36.0566 44.1924L36.8291 44.7939C36.2093 45.7464 35.2796 46.2227 34.04 46.2227ZM33.8828 39.5918C33.3724 39.5918 32.944 39.7786 32.5977 40.1523C32.2513 40.5215 32.0371 41.041 31.9551 41.7109H35.6602V41.6152C35.6237 40.9727 35.4505 40.4759 35.1406 40.125C34.8307 39.7695 34.4115 39.5918 33.8828 39.5918ZM41.9697 39.8242C41.7783 39.7923 41.571 39.7764 41.3477 39.7764C40.5182 39.7764 39.9554 40.1296 39.6592 40.8359V46.0859H38.3945V38.6895H39.625L39.6455 39.5439C40.0602 38.8831 40.6481 38.5527 41.4092 38.5527C41.6553 38.5527 41.8421 38.5846 41.9697 38.6484V39.8242ZM51.1777 45.3545C50.6855 45.9333 49.9632 46.2227 49.0107 46.2227C48.2223 46.2227 47.6208 45.9948 47.2061 45.5391C46.7959 45.0788 46.5885 44.3997 46.584 43.502V38.6895H47.8486V43.4678C47.8486 44.5889 48.3044 45.1494 49.2158 45.1494C50.182 45.1494 50.8245 44.7894 51.1436 44.0693V38.6895H52.4082V46.0859H51.2051L51.1777 45.3545ZM55.5322 38.6895L55.5732 39.6191C56.1383 38.9082 56.8766 38.5527 57.7881 38.5527C59.3512 38.5527 60.1396 39.4346 60.1533 41.1982V46.0859H58.8887V41.1914C58.8841 40.6582 58.7611 40.264 58.5195 40.0088C58.2826 39.7536 57.9111 39.626 57.4053 39.626C56.9951 39.626 56.6351 39.7354 56.3252 39.9541C56.0153 40.1729 55.7738 40.46 55.6006 40.8154V46.0859H54.3359V38.6895H55.5322ZM61.7529 42.3262C61.7529 41.1914 62.0218 40.2799 62.5596 39.5918C63.0973 38.8991 63.8014 38.5527 64.6719 38.5527C65.5378 38.5527 66.2236 38.849 66.7295 39.4414V35.5859H67.9941V46.0859H66.832L66.7705 45.293C66.2646 45.9128 65.5605 46.2227 64.6582 46.2227C63.8014 46.2227 63.1019 45.8717 62.5596 45.1699C62.0218 44.4681 61.7529 43.5521 61.7529 42.4219V42.3262ZM63.0176 42.4697C63.0176 43.3083 63.1908 43.9645 63.5371 44.4385C63.8835 44.9124 64.362 45.1494 64.9727 45.1494C65.7747 45.1494 66.3604 44.7894 66.7295 44.0693V40.6719C66.3512 39.9746 65.7702 39.626 64.9863 39.626C64.3665 39.626 63.8835 39.8652 63.5371 40.3438C63.1908 40.8223 63.0176 41.5309 63.0176 42.4697ZM73.0322 46.2227C72.0296 46.2227 71.2139 45.8945 70.585 45.2383C69.9561 44.5775 69.6416 43.6956 69.6416 42.5928V42.3604C69.6416 41.6266 69.7806 40.9727 70.0586 40.3984C70.3411 39.8197 70.7331 39.3685 71.2344 39.0449C71.7402 38.7168 72.2871 38.5527 72.875 38.5527C73.8366 38.5527 74.584 38.8695 75.1172 39.5029C75.6504 40.1364 75.917 41.0433 75.917 42.2236V42.75H70.9062C70.9245 43.4792 71.1364 44.0693 71.542 44.5205C71.9521 44.9671 72.4717 45.1904 73.1006 45.1904C73.5472 45.1904 73.9255 45.0993 74.2354 44.917C74.5452 44.7347 74.8164 44.4932 75.0488 44.1924L75.8213 44.7939C75.2015 45.7464 74.2718 46.2227 73.0322 46.2227ZM72.875 39.5918C72.3646 39.5918 71.9362 39.7786 71.5898 40.1523C71.2435 40.5215 71.0293 41.041 70.9473 41.7109H74.6523V41.6152C74.6159 40.9727 74.4427 40.4759 74.1328 40.125C73.8229 39.7695 73.4036 39.5918 72.875 39.5918ZM80.9619 39.8242C80.7705 39.7923 80.5632 39.7764 80.3398 39.7764C79.5104 39.7764 78.9476 40.1296 78.6514 40.8359V46.0859H77.3867V38.6895H78.6172L78.6377 39.5439C79.0524 38.8831 79.6403 38.5527 80.4014 38.5527C80.6475 38.5527 80.8343 38.5846 80.9619 38.6484V39.8242ZM84.1885 36.8984V38.6895H85.5693V39.667H84.1885V44.2539C84.1885 44.5501 84.25 44.7734 84.373 44.9238C84.4961 45.0697 84.7057 45.1426 85.002 45.1426C85.1478 45.1426 85.3483 45.1152 85.6035 45.0605V46.0859C85.2708 46.1771 84.9473 46.2227 84.6328 46.2227C84.0677 46.2227 83.6416 46.0518 83.3545 45.71C83.0674 45.3682 82.9238 44.8828 82.9238 44.2539V39.667H81.5771V38.6895H82.9238V36.8984H84.1885ZM91.6191 46.0859C91.5462 45.9401 91.487 45.6803 91.4414 45.3066C90.8535 45.9173 90.1517 46.2227 89.3359 46.2227C88.6068 46.2227 88.0075 46.0176 87.5381 45.6074C87.0732 45.1927 86.8408 44.6686 86.8408 44.0352C86.8408 43.265 87.1325 42.668 87.7158 42.2441C88.3037 41.8158 89.1286 41.6016 90.1904 41.6016H91.4209V41.0205C91.4209 40.5785 91.2887 40.2275 91.0244 39.9678C90.7601 39.7035 90.3704 39.5713 89.8555 39.5713C89.4043 39.5713 89.026 39.6852 88.7207 39.9131C88.4154 40.141 88.2627 40.4167 88.2627 40.7402H86.9912C86.9912 40.3711 87.1211 40.0156 87.3809 39.6738C87.6452 39.3275 88.0007 39.054 88.4473 38.8535C88.8984 38.653 89.3929 38.5527 89.9307 38.5527C90.7829 38.5527 91.4505 38.7669 91.9336 39.1953C92.4167 39.6191 92.6673 40.2048 92.6855 40.9521V44.3564C92.6855 45.0355 92.7721 45.5755 92.9453 45.9766V46.0859H91.6191ZM89.5205 45.1221C89.917 45.1221 90.293 45.0195 90.6484 44.8145C91.0039 44.6094 91.2614 44.3428 91.4209 44.0146V42.4971H90.4297C88.8802 42.4971 88.1055 42.9505 88.1055 43.8574C88.1055 44.2539 88.2376 44.5638 88.502 44.7871C88.7663 45.0104 89.1058 45.1221 89.5205 45.1221ZM96.7324 42.6611L95.9395 43.4883V46.0859H94.6748V35.5859H95.9395V41.9365L96.6162 41.123L98.9199 38.6895H100.458L97.5801 41.7793L100.793 46.0859H99.3096L96.7324 42.6611ZM104.696 46.2227C103.694 46.2227 102.878 45.8945 102.249 45.2383C101.62 44.5775 101.306 43.6956 101.306 42.5928V42.3604C101.306 41.6266 101.445 40.9727 101.723 40.3984C102.005 39.8197 102.397 39.3685 102.898 39.0449C103.404 38.7168 103.951 38.5527 104.539 38.5527C105.501 38.5527 106.248 38.8695 106.781 39.5029C107.314 40.1364 107.581 41.0433 107.581 42.2236V42.75H102.57C102.589 43.4792 102.8 44.0693 103.206 44.5205C103.616 44.9671 104.136 45.1904 104.765 45.1904C105.211 45.1904 105.59 45.0993 105.899 44.917C106.209 44.7347 106.48 44.4932 106.713 44.1924L107.485 44.7939C106.866 45.7464 105.936 46.2227 104.696 46.2227ZM104.539 39.5918C104.029 39.5918 103.6 39.7786 103.254 40.1523C102.908 40.5215 102.693 41.041 102.611 41.7109H106.316V41.6152C106.28 40.9727 106.107 40.4759 105.797 40.125C105.487 39.7695 105.068 39.5918 104.539 39.5918ZM113.357 44.124C113.357 43.7822 113.228 43.5179 112.968 43.3311C112.713 43.1396 112.264 42.9756 111.621 42.8389C110.983 42.7021 110.475 42.5381 110.097 42.3467C109.723 42.1553 109.445 41.9274 109.263 41.6631C109.085 41.3988 108.996 41.0843 108.996 40.7197C108.996 40.1136 109.251 39.6009 109.762 39.1816C110.277 38.7624 110.933 38.5527 111.73 38.5527C112.569 38.5527 113.248 38.7692 113.768 39.2021C114.292 39.6351 114.554 40.1888 114.554 40.8633H113.282C113.282 40.5169 113.134 40.2184 112.838 39.9678C112.546 39.7171 112.177 39.5918 111.73 39.5918C111.27 39.5918 110.91 39.6921 110.65 39.8926C110.391 40.0931 110.261 40.3551 110.261 40.6787C110.261 40.984 110.382 41.2142 110.623 41.3691C110.865 41.5241 111.3 41.6722 111.929 41.8135C112.562 41.9548 113.075 42.1234 113.467 42.3193C113.859 42.5153 114.148 42.7523 114.335 43.0303C114.526 43.3037 114.622 43.6387 114.622 44.0352C114.622 44.696 114.358 45.2269 113.829 45.6279C113.3 46.0244 112.615 46.2227 111.771 46.2227C111.179 46.2227 110.655 46.1178 110.199 45.9082C109.743 45.6986 109.386 45.4069 109.126 45.0332C108.871 44.6549 108.743 44.2471 108.743 43.8096H110.008C110.031 44.2334 110.199 44.5706 110.514 44.8213C110.833 45.0674 111.252 45.1904 111.771 45.1904C112.25 45.1904 112.633 45.0947 112.92 44.9033C113.212 44.7074 113.357 44.4476 113.357 44.124ZM119.188 42.1143C119.188 43.1305 119.054 44.1058 118.785 45.04C118.521 45.9697 118.113 46.8288 117.562 47.6172C117.015 48.4056 116.44 48.9661 115.839 49.2988L115.572 48.5264C116.274 47.9886 116.837 47.1546 117.261 46.0244C117.689 44.8896 117.908 43.6318 117.917 42.251V42.0322C117.917 41.0752 117.817 40.1865 117.616 39.3662C117.416 38.5413 117.135 37.8031 116.775 37.1514C116.42 36.4997 116.019 35.9915 115.572 35.627L115.839 34.8545C116.44 35.1872 117.012 35.7432 117.555 36.5225C118.102 37.3018 118.509 38.1608 118.778 39.0996C119.052 40.0384 119.188 41.0433 119.188 42.1143Z" fill="#222428"/>
<path d="M263.059 45.1875C263.059 46.457 262.842 47.4004 262.408 48.0176C261.975 48.6348 261.297 48.9434 260.375 48.9434C259.465 48.9434 258.791 48.6426 258.354 48.041C257.916 47.4355 257.689 46.5332 257.674 45.334V43.8867C257.674 42.6328 257.891 41.7012 258.324 41.0918C258.758 40.4824 259.438 40.1777 260.363 40.1777C261.281 40.1777 261.957 40.4727 262.391 41.0625C262.824 41.6484 263.047 42.5547 263.059 43.7812V45.1875ZM261.975 43.7051C261.975 42.7871 261.846 42.1191 261.588 41.7012C261.33 41.2793 260.922 41.0684 260.363 41.0684C259.809 41.0684 259.404 41.2773 259.15 41.6953C258.896 42.1133 258.766 42.7559 258.758 43.623V45.3574C258.758 46.2793 258.891 46.9609 259.156 47.4023C259.426 47.8398 259.832 48.0586 260.375 48.0586C260.91 48.0586 261.307 47.8516 261.564 47.4375C261.826 47.0234 261.963 46.3711 261.975 45.4805V43.7051ZM268.438 48.8262H267.348V41.6016L265.163 42.4043V41.4199L268.268 40.2539H268.438V48.8262ZM272.119 48.2578C272.119 48.0703 272.174 47.9141 272.283 47.7891C272.396 47.6641 272.564 47.6016 272.787 47.6016C273.009 47.6016 273.177 47.6641 273.291 47.7891C273.408 47.9141 273.467 48.0703 273.467 48.2578C273.467 48.4375 273.408 48.5879 273.291 48.709C273.177 48.8301 273.009 48.8906 272.787 48.8906C272.564 48.8906 272.396 48.8301 272.283 48.709C272.174 48.5879 272.119 48.4375 272.119 48.2578ZM272.125 43.084C272.125 42.8965 272.179 42.7402 272.289 42.6152C272.402 42.4902 272.57 42.4277 272.793 42.4277C273.015 42.4277 273.183 42.4902 273.297 42.6152C273.414 42.7402 273.472 42.8965 273.472 43.084C273.472 43.2637 273.414 43.4141 273.297 43.5352C273.183 43.6562 273.015 43.7168 272.793 43.7168C272.57 43.7168 272.402 43.6562 272.289 43.5352C272.179 43.4141 272.125 43.2637 272.125 43.084ZM276.954 44.0332H277.768C278.28 44.0254 278.682 43.8906 278.975 43.6289C279.268 43.3672 279.415 43.0137 279.415 42.5684C279.415 41.5684 278.917 41.0684 277.92 41.0684C277.452 41.0684 277.077 41.2031 276.795 41.4727C276.518 41.7383 276.379 42.0918 276.379 42.5332H275.295C275.295 41.8574 275.542 41.2969 276.034 40.8516C276.53 40.4023 277.159 40.1777 277.92 40.1777C278.725 40.1777 279.356 40.3906 279.813 40.8164C280.27 41.2422 280.499 41.834 280.499 42.5918C280.499 42.9629 280.378 43.3223 280.135 43.6699C279.897 44.0176 279.571 44.2773 279.157 44.4492C279.626 44.5977 279.987 44.8438 280.241 45.1875C280.499 45.5312 280.628 45.9512 280.628 46.4473C280.628 47.2129 280.378 47.8203 279.878 48.2695C279.378 48.7188 278.727 48.9434 277.926 48.9434C277.126 48.9434 276.473 48.7266 275.969 48.293C275.469 47.8594 275.219 47.2871 275.219 46.5762H276.309C276.309 47.0254 276.456 47.3848 276.749 47.6543C277.042 47.9238 277.434 48.0586 277.926 48.0586C278.45 48.0586 278.85 47.9219 279.128 47.6484C279.405 47.375 279.544 46.9824 279.544 46.4707C279.544 45.9746 279.391 45.5938 279.086 45.3281C278.782 45.0625 278.342 44.9258 277.768 44.918H276.954V44.0332ZM287.718 42.5215C287.718 42.9473 287.605 43.3262 287.378 43.6582C287.156 43.9902 286.853 44.25 286.47 44.4375C286.915 44.6289 287.267 44.9082 287.525 45.2754C287.787 45.6426 287.917 46.0586 287.917 46.5234C287.917 47.2617 287.667 47.8496 287.167 48.2871C286.671 48.7246 286.017 48.9434 285.205 48.9434C284.384 48.9434 283.726 48.7246 283.23 48.2871C282.738 47.8457 282.492 47.2578 282.492 46.5234C282.492 46.0625 282.617 45.6465 282.867 45.2754C283.121 44.9043 283.47 44.623 283.915 44.4316C283.537 44.2441 283.238 43.9844 283.019 43.6523C282.8 43.3203 282.691 42.9434 282.691 42.5215C282.691 41.8027 282.921 41.2324 283.382 40.8105C283.843 40.3887 284.451 40.1777 285.205 40.1777C285.955 40.1777 286.56 40.3887 287.021 40.8105C287.486 41.2324 287.718 41.8027 287.718 42.5215ZM286.833 46.5C286.833 46.0234 286.681 45.6348 286.376 45.334C286.076 45.0332 285.681 44.8828 285.193 44.8828C284.705 44.8828 284.312 45.0312 284.015 45.3281C283.722 45.625 283.576 46.0156 283.576 46.5C283.576 46.9844 283.718 47.3652 284.003 47.6426C284.292 47.9199 284.693 48.0586 285.205 48.0586C285.712 48.0586 286.111 47.9199 286.4 47.6426C286.689 47.3613 286.833 46.9805 286.833 46.5ZM285.205 41.0684C284.779 41.0684 284.433 41.2012 284.167 41.4668C283.906 41.7285 283.775 42.0859 283.775 42.5391C283.775 42.9727 283.904 43.3242 284.162 43.5938C284.423 43.8594 284.771 43.9922 285.205 43.9922C285.638 43.9922 285.984 43.8594 286.242 43.5938C286.503 43.3242 286.634 42.9727 286.634 42.5391C286.634 42.1055 286.499 41.752 286.23 41.4785C285.96 41.2051 285.619 41.0684 285.205 41.0684Z" fill="#9BA0AD"/>
</svg>
